<svg width="40.000000" height="40.000000" viewBox="0 0 40 40" fill="none" xmlns="http://www.w3.org/2000/svg" xmlns:xlink="http://www.w3.org/1999/xlink">
	<desc>
			Created with Pixso.
	</desc>
	<defs>
		<clipPath id="clip3_82">
			<rect id="Qualified Doctor 1" width="40.000000" height="40.000000" fill="white" fill-opacity="0"/>
		</clipPath>
	</defs>
	<rect id="Qualified Doctor 1" width="40.000000" height="40.000000" fill="#FFFFFF" fill-opacity="0"/>
	<g clip-path="url(#clip3_82)">
		<path id="Vector" d="M13.62 14.83C13.55 14.83 13.48 14.82 13.41 14.79C13.34 14.76 13.28 14.72 13.23 14.67C12.69 14.1 10.93 12.09 10.85 9.83C10.84 9.69 10.89 9.56 10.98 9.46C11.04 9.38 11.08 9.29 11.09 9.18C11.09 9.16 11.04 9.12 11.02 9.1C10.95 9.05 10.89 8.98 10.85 8.9C10.81 8.82 10.79 8.73 10.79 8.64C10.81 8.23 10.98 7.85 11.27 7.56C11.21 7.48 11.15 7.4 11.09 7.32C11.01 7.24 10.96 7.13 10.94 7.01C10.93 6.89 10.96 6.77 11.02 6.67L11.2 6.38C11.27 5.89 11.57 4.22 12.77 3.41C13.08 3.2 13.44 3.06 13.81 2.99C14.18 2.92 14.56 2.93 14.93 3.01C15.22 2.33 15.7 1.75 16.31 1.34C17.44 0.59 18.95 0.39 20.81 0.76C25.57 1.71 26.69 3.44 27.29 4.57C27.71 4.74 28.05 5.05 28.26 5.45C28.41 5.76 28.45 6.11 28.38 6.45C28.75 6.83 29.01 7.31 29.12 7.83C29.32 8.67 29.21 12.55 26.7 14.55C26.62 14.62 26.51 14.66 26.4 14.67C26.3 14.68 26.19 14.65 26.09 14.6C26 14.54 25.92 14.46 25.88 14.37C25.83 14.27 25.81 14.16 25.83 14.05C25.86 13.84 25.89 13.63 25.91 13.42C25.94 13 25.9 12.58 25.76 12.17C25.63 11.77 25.41 11.4 25.13 11.09C24.85 10.77 24.5 10.52 24.12 10.34C23.73 10.17 23.31 10.07 22.89 10.07C21.45 10.03 20.03 9.64 18.77 8.94L18.64 8.87C18.18 8.63 17.66 8.51 17.13 8.53C16.61 8.54 16.1 8.7 15.65 8.97C15.19 9.25 14.82 9.64 14.56 10.1C14.3 10.56 14.16 11.09 14.16 11.62L14.16 14.29C14.16 14.4 14.13 14.51 14.07 14.6C14.01 14.68 13.92 14.75 13.82 14.79C13.76 14.82 13.69 14.83 13.62 14.83ZM11.94 9.96C12.08 10.98 12.47 11.95 13.08 12.77L13.08 11.62C13.08 10.9 13.26 10.2 13.61 9.58C13.96 8.96 14.46 8.44 15.07 8.07C15.68 7.69 16.37 7.48 17.08 7.46C17.8 7.43 18.5 7.59 19.14 7.91L19.28 7.99C20.39 8.61 21.63 8.95 22.9 8.99C23.91 9 24.88 9.38 25.63 10.06C26.38 10.74 26.85 11.66 26.97 12.67C27.82 11.28 28.2 9.67 28.06 8.06C27.96 7.66 27.74 7.3 27.43 7.04C27.34 6.97 27.27 6.87 27.24 6.75C27.21 6.64 27.22 6.52 27.26 6.42C27.31 6.34 27.33 6.26 27.33 6.17C27.34 6.09 27.32 6 27.29 5.92C27.16 5.73 26.98 5.59 26.76 5.53C26.69 5.51 26.62 5.47 26.57 5.43C26.51 5.38 26.46 5.32 26.43 5.26C25.9 4.25 25.11 2.73 20.6 1.83C19.04 1.51 17.8 1.65 16.92 2.24C16.38 2.6 15.99 3.14 15.82 3.76C15.81 3.84 15.78 3.91 15.73 3.97C15.69 4.03 15.63 4.08 15.57 4.12C15.5 4.16 15.43 4.19 15.35 4.2C15.28 4.2 15.2 4.2 15.13 4.18C14.85 4.06 14.55 4.01 14.24 4.03C13.94 4.05 13.64 4.14 13.38 4.3C12.42 4.95 12.27 6.59 12.27 6.61C12.26 6.69 12.23 6.78 12.19 6.85L12.14 6.92C12.35 7.17 12.45 7.5 12.41 7.83C12.39 7.95 12.34 8.06 12.26 8.15C12.19 8.25 12.09 8.32 11.98 8.37C11.95 8.4 11.93 8.44 11.92 8.48C12.06 8.64 12.14 8.84 12.17 9.05C12.19 9.37 12.11 9.69 11.94 9.96ZM11.51 7.4L11.49 7.41L11.51 7.4Z" fill="#67D7C1" fill-opacity="1.000000" fill-rule="nonzero"/>
		<path id="Vector" d="M20.01 23.62C17.87 23.57 16.43 22.04 15.03 20.57C14.88 20.41 14.73 20.25 14.58 20.1C13.58 19.02 13.04 17.59 13.08 16.12L13.08 14.13C13.08 13.99 13.14 13.85 13.24 13.75C13.34 13.65 13.48 13.59 13.62 13.59C13.77 13.59 13.91 13.65 14.01 13.75C14.11 13.85 14.17 13.99 14.17 14.13L14.17 16.16C14.14 17.34 14.57 18.48 15.36 19.35C15.51 19.5 15.67 19.66 15.82 19.82C17.11 21.2 18.34 22.5 20.01 22.54C21.64 22.5 22.87 21.2 24.17 19.82C24.32 19.66 24.47 19.5 24.63 19.35C25.41 18.49 25.84 17.36 25.83 16.2L25.83 14.13C25.83 13.99 25.88 13.85 25.98 13.75C26.09 13.65 26.22 13.59 26.37 13.59C26.51 13.59 26.65 13.65 26.75 13.75C26.85 13.85 26.91 13.99 26.91 14.13L26.91 16.16C26.94 17.62 26.4 19.03 25.41 20.1C25.26 20.25 25.11 20.41 24.96 20.57C23.56 22.04 22.12 23.57 20.01 23.62Z" fill="#67D7C1" fill-opacity="1.000000" fill-rule="nonzero"/>
		<path id="Vector" d="M13.38 16.89C12.28 16.89 11.38 15.81 11.38 14.48C11.38 14.12 11.44 13.76 11.58 13.43C11.72 13.09 11.93 12.79 12.19 12.54C12.29 12.45 12.44 12.4 12.58 12.41C12.72 12.42 12.86 12.48 12.95 12.59C13.05 12.69 13.1 12.83 13.09 12.98C13.08 13.12 13.02 13.25 12.91 13.35C12.76 13.5 12.65 13.67 12.57 13.87C12.49 14.06 12.46 14.27 12.46 14.48C12.46 15.25 12.97 15.88 13.49 15.8C13.63 15.77 13.77 15.81 13.89 15.89C14.01 15.97 14.09 16.1 14.11 16.24C14.13 16.38 14.1 16.53 14.02 16.64C13.93 16.76 13.81 16.84 13.67 16.86C13.57 16.88 13.48 16.89 13.38 16.89Z" fill="#67D7C1" fill-opacity="1.000000" fill-rule="nonzero"/>
		<path id="Vector" d="M26.61 16.89C26.51 16.89 26.42 16.88 26.32 16.86C26.18 16.84 26.06 16.76 25.98 16.64C25.9 16.53 25.86 16.38 25.89 16.24C25.91 16.1 25.99 15.97 26.1 15.89C26.22 15.81 26.36 15.77 26.5 15.8C27.02 15.88 27.53 15.25 27.53 14.48C27.53 14.27 27.5 14.06 27.42 13.87C27.35 13.67 27.23 13.5 27.08 13.35C27.03 13.3 26.99 13.25 26.96 13.18C26.92 13.12 26.91 13.05 26.9 12.98C26.89 12.83 26.94 12.69 27.04 12.59C27.13 12.48 27.27 12.42 27.41 12.41C27.56 12.4 27.7 12.45 27.8 12.54C28.06 12.79 28.27 13.09 28.41 13.43C28.55 13.76 28.61 14.12 28.61 14.48C28.61 15.81 27.71 16.89 26.61 16.89Z" fill="#67D7C1" fill-opacity="1.000000" fill-rule="nonzero"/>
		<path id="Vector" d="M17.67 29.16C17.65 29.16 17.63 29.16 17.62 29.16C17.54 29.15 17.46 29.12 17.39 29.08C17.32 29.04 17.26 28.98 17.21 28.91L14.76 25.09C14.7 25 14.67 24.89 14.67 24.78C14.68 24.67 14.71 24.56 14.78 24.48L15.7 23.23C15.78 23.11 15.9 23.04 16.04 23.01C16.17 22.99 16.32 23.02 16.43 23.1L20.3 25.67C20.36 25.71 20.41 25.77 20.45 25.83C20.5 25.9 20.52 25.97 20.53 26.05C20.54 26.13 20.53 26.21 20.51 26.28C20.48 26.36 20.44 26.42 20.39 26.48L18.06 28.98C18.01 29.04 17.95 29.08 17.88 29.11C17.81 29.14 17.74 29.16 17.67 29.16ZM15.87 24.81L17.74 27.74L19.17 26.21L16.26 24.28L15.87 24.81Z" fill="#67D7C1" fill-opacity="1.000000" fill-rule="nonzero"/>
		<path id="Vector" d="M22.32 29.16C22.25 29.16 22.17 29.14 22.11 29.11C22.04 29.08 21.98 29.04 21.93 28.98L19.6 26.48C19.55 26.42 19.51 26.36 19.48 26.28C19.46 26.21 19.45 26.13 19.46 26.05C19.47 25.97 19.49 25.9 19.53 25.83C19.57 25.76 19.63 25.71 19.69 25.66L23.56 23.09C23.67 23.02 23.82 22.99 23.95 23.01C24.09 23.03 24.21 23.11 24.29 23.22L25.21 24.47C25.28 24.56 25.31 24.67 25.32 24.78C25.32 24.88 25.29 24.99 25.23 25.08L22.78 28.91C22.73 28.98 22.67 29.04 22.6 29.08C22.53 29.12 22.45 29.15 22.37 29.16C22.35 29.16 22.34 29.16 22.32 29.16ZM20.82 26.21L22.24 27.74L24.12 24.81L23.73 24.28L20.82 26.21Z" fill="#67D7C1" fill-opacity="1.000000" fill-rule="nonzero"/>
		<path id="Vector" d="M33.17 39.64L6.28 39.64C5.75 39.64 5.24 39.43 4.86 39.06C4.49 38.68 4.28 38.17 4.28 37.64L4.28 32.82C4.27 31.3 4.76 29.82 5.66 28.59C6.56 27.37 7.83 26.47 9.29 26.03L15.16 24.31C15.29 24.27 15.44 24.29 15.57 24.35C15.69 24.42 15.79 24.54 15.83 24.68C15.87 24.82 15.85 24.96 15.78 25.09C15.71 25.21 15.6 25.31 15.46 25.35L9.6 27.06C8.37 27.44 7.29 28.2 6.53 29.24C5.76 30.28 5.35 31.53 5.36 32.82L5.36 37.64C5.36 37.89 5.46 38.12 5.63 38.29C5.8 38.47 6.03 38.56 6.28 38.56L33.17 38.56C33.42 38.56 33.65 38.47 33.82 38.29C33.99 38.12 34.09 37.89 34.09 37.64L34.09 32.28C34.1 30.99 33.68 29.73 32.92 28.7C32.15 27.66 31.07 26.9 29.84 26.52L24.66 25.38C24.52 25.35 24.4 25.27 24.32 25.15C24.24 25.03 24.22 24.88 24.25 24.74C24.28 24.6 24.36 24.48 24.48 24.4C24.6 24.32 24.75 24.3 24.89 24.33L30.12 25.47C31.58 25.91 32.86 26.81 33.77 28.04C34.68 29.26 35.18 30.75 35.17 32.28L35.17 37.64C35.17 38.17 34.96 38.68 34.59 39.06C34.21 39.43 33.7 39.64 33.17 39.64Z" fill="#67D7C1" fill-opacity="1.000000" fill-rule="nonzero"/>
		<path id="Vector" d="M20 26.65C19.89 26.65 19.78 26.62 19.7 26.56L15.83 23.99C15.75 23.94 15.68 23.86 15.64 23.76C15.6 23.67 15.58 23.56 15.6 23.46L15.95 21.19C15.96 21.12 15.99 21.05 16.02 20.99C16.06 20.93 16.11 20.88 16.17 20.83C16.22 20.79 16.29 20.76 16.36 20.74C16.43 20.73 16.5 20.72 16.57 20.73C16.64 20.75 16.71 20.77 16.77 20.81C16.83 20.85 16.89 20.89 16.93 20.95C16.97 21.01 17 21.08 17.01 21.15C17.03 21.22 17.03 21.29 17.02 21.36L16.72 23.29L20 25.46L23.27 23.28L22.97 21.35C22.96 21.28 22.96 21.21 22.97 21.14C22.99 21.07 23.02 21.01 23.06 20.95C23.1 20.89 23.16 20.84 23.22 20.8C23.28 20.77 23.35 20.74 23.42 20.73C23.49 20.72 23.56 20.72 23.63 20.74C23.7 20.76 23.76 20.79 23.82 20.83C23.88 20.87 23.93 20.93 23.97 20.99C24 21.05 24.03 21.12 24.04 21.19L24.39 23.46C24.41 23.56 24.39 23.66 24.35 23.76C24.31 23.85 24.24 23.93 24.16 23.99L20.29 26.56C20.2 26.62 20.1 26.65 20 26.65Z" fill="#67D7C1" fill-opacity="1.000000" fill-rule="nonzero"/>
		<path id="Vector" d="M31.23 34.6C31.19 34.6 31.15 34.6 31.11 34.59L30.23 34.39C30.16 34.38 30.1 34.35 30.04 34.31C29.98 34.27 29.93 34.21 29.89 34.15C29.85 34.09 29.82 34.03 29.81 33.95C29.8 33.88 29.8 33.81 29.81 33.74C29.83 33.67 29.86 33.6 29.9 33.55C29.94 33.49 30 33.44 30.06 33.4C30.12 33.36 30.19 33.34 30.26 33.33C30.33 33.32 30.4 33.32 30.47 33.34L30.82 33.42L31.21 31.71C31.27 31.45 31.29 31.19 31.25 30.92C31.2 30.66 31.11 30.41 30.97 30.18C30.83 29.96 30.65 29.76 30.43 29.6C30.22 29.45 29.97 29.34 29.71 29.28C29.45 29.22 29.18 29.22 28.92 29.26C28.66 29.31 28.41 29.41 28.19 29.55C27.96 29.7 27.77 29.88 27.62 30.1C27.47 30.32 27.36 30.57 27.31 30.83L26.92 32.53L27.28 32.61C27.42 32.64 27.54 32.73 27.62 32.85C27.69 32.97 27.72 33.12 27.69 33.26C27.65 33.4 27.57 33.52 27.45 33.6C27.33 33.67 27.18 33.7 27.04 33.67L26.16 33.47C26.09 33.45 26.02 33.42 25.96 33.38C25.91 33.34 25.86 33.29 25.82 33.23C25.78 33.17 25.76 33.1 25.74 33.03C25.73 32.96 25.73 32.89 25.75 32.82L26.25 30.59C26.34 30.19 26.51 29.82 26.74 29.49C26.98 29.16 27.27 28.88 27.62 28.66C27.96 28.45 28.34 28.3 28.74 28.23C29.14 28.16 29.55 28.17 29.94 28.26C30.34 28.35 30.71 28.52 31.04 28.75C31.37 28.99 31.65 29.28 31.87 29.62C32.08 29.97 32.23 30.35 32.3 30.75C32.37 31.15 32.35 31.55 32.27 31.95L31.76 34.18C31.73 34.3 31.67 34.41 31.57 34.48C31.48 34.56 31.36 34.6 31.23 34.6L31.23 34.6Z" fill="#67D7C1" fill-opacity="1.000000" fill-rule="nonzero"/>
		<path id="Vector" d="M9.79 30.18C9.67 30.18 9.55 30.14 9.45 30.06C9.36 29.98 9.29 29.88 9.26 29.76L8.6 26.77C8.59 26.7 8.59 26.63 8.6 26.56C8.61 26.49 8.64 26.42 8.67 26.36C8.71 26.3 8.76 26.25 8.82 26.21C8.88 26.17 8.94 26.14 9.01 26.13C9.08 26.11 9.15 26.11 9.22 26.12C9.29 26.13 9.36 26.16 9.42 26.2C9.48 26.24 9.53 26.29 9.57 26.34C9.61 26.4 9.64 26.47 9.66 26.54L10.32 29.52C10.35 29.66 10.32 29.81 10.25 29.93C10.17 30.05 10.05 30.14 9.91 30.17C9.87 30.17 9.83 30.18 9.79 30.18Z" fill="#67D7C1" fill-opacity="1.000000" fill-rule="nonzero"/>
		<path id="Vector" d="M29.85 29.34C29.81 29.34 29.77 29.33 29.73 29.32C29.66 29.31 29.6 29.28 29.54 29.24C29.48 29.2 29.43 29.15 29.39 29.09C29.36 29.03 29.33 28.96 29.32 28.89C29.3 28.82 29.31 28.75 29.32 28.68L29.9 26.04C29.93 25.9 30.02 25.77 30.14 25.7C30.26 25.62 30.4 25.59 30.54 25.62C30.68 25.65 30.81 25.74 30.88 25.86C30.96 25.98 30.99 26.13 30.96 26.27L30.38 28.91C30.35 29.03 30.28 29.14 30.19 29.22C30.09 29.29 29.97 29.34 29.85 29.34Z" fill="#67D7C1" fill-opacity="1.000000" fill-rule="nonzero"/>
		<path id="Vector" d="M10.57 33.98C10.07 33.98 9.58 33.84 9.17 33.56C8.75 33.28 8.43 32.89 8.24 32.43C8.05 31.97 8 31.46 8.09 30.97C8.19 30.48 8.43 30.03 8.78 29.68C9.14 29.32 9.59 29.08 10.08 28.99C10.57 28.89 11.07 28.94 11.53 29.13C12 29.32 12.39 29.64 12.67 30.06C12.94 30.47 13.09 30.96 13.09 31.46C13.09 32.13 12.83 32.77 12.35 33.24C11.88 33.72 11.24 33.98 10.57 33.98ZM10.57 30.02C10.28 30.02 10 30.1 9.77 30.26C9.53 30.42 9.35 30.65 9.24 30.91C9.13 31.17 9.1 31.46 9.15 31.74C9.21 32.02 9.35 32.28 9.55 32.48C9.75 32.68 10.01 32.82 10.29 32.88C10.57 32.93 10.86 32.9 11.12 32.79C11.38 32.68 11.61 32.5 11.77 32.26C11.93 32.02 12.01 31.75 12.01 31.46C12.01 31.08 11.86 30.71 11.59 30.44C11.32 30.17 10.95 30.02 10.57 30.02Z" fill="#67D7C1" fill-opacity="1.000000" fill-rule="nonzero"/>
		<path id="Vector" d="M11.39 31.46C11.39 31.91 11.02 32.28 10.57 32.28C10.12 32.28 9.75 31.91 9.75 31.46C9.75 31.01 10.12 30.64 10.57 30.64C11.02 30.64 11.39 31.01 11.39 31.46Z" fill="#67D7C1" fill-opacity="1.000000" fill-rule="evenodd"/>
		<path id="Vector" d="M10.57 32.55C10.35 32.55 10.14 32.48 9.96 32.36C9.79 32.25 9.65 32.08 9.56 31.88C9.48 31.68 9.46 31.46 9.5 31.25C9.54 31.04 9.65 30.84 9.8 30.69C9.95 30.54 10.15 30.44 10.36 30.39C10.57 30.35 10.79 30.37 10.98 30.46C11.18 30.54 11.35 30.68 11.47 30.86C11.59 31.04 11.66 31.25 11.66 31.46C11.66 31.75 11.54 32.03 11.34 32.23C11.13 32.43 10.86 32.55 10.57 32.55ZM10.57 30.91C10.46 30.91 10.36 30.95 10.27 31.01C10.17 31.07 10.1 31.15 10.06 31.25C10.02 31.35 10.01 31.46 10.03 31.57C10.05 31.67 10.11 31.77 10.18 31.85C10.26 31.92 10.36 31.98 10.46 32C10.57 32.02 10.68 32.01 10.78 31.97C10.88 31.92 10.96 31.85 11.02 31.76C11.08 31.67 11.12 31.57 11.12 31.46C11.12 31.32 11.06 31.18 10.96 31.07C10.85 30.97 10.71 30.91 10.57 30.91Z" fill="#67D7C1" fill-opacity="1.000000" fill-rule="nonzero"/>
	</g>
</svg>
