<svg width="30.000000" height="27.000000" viewBox="0 0 30 27" fill="none" xmlns="http://www.w3.org/2000/svg" xmlns:xlink="http://www.w3.org/1999/xlink">
	<desc>
			Created with Pixso.
	</desc>
	<defs/>
	<path id="Vector" d="M26.6 4.32L26.13 4.32L26.13 3.74C26.13 2.77 25.34 1.98 24.37 1.98C23.4 1.98 22.61 2.77 22.61 3.74L22.61 4.32L21.44 4.32L21.44 0.92C21.44 -0.04 20.65 -0.83 19.68 -0.83L17.6 -0.83C17.28 -0.83 17.02 -0.57 17.02 -0.25C17.02 0.08 17.28 0.34 17.6 0.34L19.68 0.34C20.01 0.34 20.27 0.6 20.27 0.92L20.27 4.32L19.1 4.32L19.1 2.1C19.1 1.77 18.83 1.51 18.51 1.51L11.48 1.51C11.16 1.51 10.89 1.77 10.89 2.1L10.89 4.32L9.72 4.32L9.72 0.92C9.72 0.6 9.98 0.34 10.31 0.34L12.33 0.34C12.65 0.34 12.92 0.08 12.92 -0.25C12.92 -0.57 12.65 -0.83 12.33 -0.83L10.31 -0.83C9.34 -0.83 8.55 -0.04 8.55 0.92L8.55 4.32L7.38 4.32L7.38 3.74C7.38 2.77 6.59 1.98 5.62 1.98C4.65 1.98 3.86 2.77 3.86 3.74L3.86 4.32L3.39 4.32C1.52 4.32 0 5.85 0 7.72L0 23.43C0 25.3 1.52 26.82 3.39 26.82L26.6 26.82C28.47 26.82 30 25.3 30 23.43L30 7.72C30 5.85 28.47 4.32 26.6 4.32ZM23.78 3.74C23.78 3.41 24.05 3.15 24.37 3.15C24.69 3.15 24.96 3.41 24.96 3.74L24.96 4.32L23.78 4.32L23.78 3.74ZM12.07 2.68L17.92 2.68L17.92 4.32L12.07 4.32L12.07 2.68ZM5.03 3.74C5.03 3.41 5.3 3.15 5.62 3.15C5.94 3.15 6.21 3.41 6.21 3.74L6.21 4.32L5.03 4.32L5.03 3.74ZM28.82 23.43C28.82 24.65 27.82 25.65 26.6 25.65L3.39 25.65C2.17 25.65 1.17 24.65 1.17 23.43L1.17 7.72C1.17 6.49 2.17 5.5 3.39 5.5L26.6 5.5C27.82 5.5 28.82 6.49 28.82 7.72L28.82 23.43Z" fill="#67D7C1" fill-opacity="1.000000" fill-rule="nonzero"/>
	<path id="Vector" d="M15 9.44C11.61 9.44 8.86 12.19 8.86 15.57C8.86 18.96 11.61 21.71 15 21.71C18.38 21.71 21.13 18.96 21.13 15.57C21.13 12.19 18.38 9.44 15 9.44ZM15 20.54C12.26 20.54 10.03 18.31 10.03 15.57C10.03 12.84 12.26 10.61 15 10.61C17.73 10.61 19.96 12.84 19.96 15.57C19.96 18.31 17.73 20.54 15 20.54Z" fill="#67D7C1" fill-opacity="1.000000" fill-rule="nonzero"/>
	<path id="Vector" d="M17.16 13.82L16.76 13.82L16.76 13.41C16.76 12.8 16.26 12.3 15.65 12.3L14.35 12.3C13.74 12.3 13.24 12.8 13.24 13.41L13.24 13.82L12.84 13.82C12.23 13.82 11.73 14.31 11.73 14.92L11.73 16.22C11.73 16.83 12.23 17.33 12.84 17.33L13.24 17.33L13.24 17.73C13.24 18.34 13.74 18.84 14.35 18.84L15.65 18.84C16.26 18.84 16.76 18.34 16.76 17.73L16.76 17.33L17.16 17.33C17.77 17.33 18.27 16.83 18.27 16.22L18.27 14.92C18.27 14.31 17.77 13.82 17.16 13.82ZM17.1 16.16L16.17 16.16C15.85 16.16 15.59 16.42 15.59 16.75L15.59 17.67L14.42 17.67L14.42 16.75C14.42 16.42 14.15 16.16 13.83 16.16L12.91 16.16L12.91 14.99L13.83 14.99C14.15 14.99 14.42 14.72 14.42 14.4L14.42 13.48L15.59 13.48L15.59 14.4C15.59 14.72 15.85 14.99 16.17 14.99L17.1 14.99L17.1 16.16Z" fill="#67D7C1" fill-opacity="1.000000" fill-rule="nonzero"/>
	<path id="Vector" d="M15.55 -0.25C15.55 0.08 15.29 0.34 14.97 0.34C14.64 0.34 14.38 0.08 14.38 -0.25C14.38 -0.57 14.64 -0.83 14.97 -0.83C15.29 -0.83 15.55 -0.57 15.55 -0.25Z" fill="#67D7C1" fill-opacity="1.000000" fill-rule="evenodd"/>
</svg>
