<svg width="33.000000" height="34.000000" viewBox="0 0 33 34" fill="none" xmlns="http://www.w3.org/2000/svg" xmlns:xlink="http://www.w3.org/1999/xlink">
	<desc>
			Created with Pixso.
	</desc>
	<defs/>
	<path id="Vector" d="M1.77 4.17C0.02 6.26 -0.39 9.18 0.7 11.67L0.56 11.82C0.17 12.21 0.17 12.84 0.56 13.22C0.75 13.42 1.01 13.52 1.26 13.52C1.52 13.52 2.62 12.58 2.62 12.58C2.62 12.58 11.09 4.11 11.09 4.11L11.74 3.46C12.12 3.07 12.12 2.44 11.74 2.05C11.35 1.66 10.72 1.66 10.33 2.05L10.19 2.19C7.91 1.2 5.28 1.45 3.25 2.83L0.7 0.29C0.31 -0.1 -0.32 -0.1 -0.71 0.29C-1.1 0.68 -1.1 1.31 -0.71 1.7L1.77 4.17Z" fill="#67D7C1" fill-opacity="1.000000" fill-rule="nonzero"/>
	<path id="Vector" d="M21.51 28.09C22.06 28.09 22.5 27.64 22.5 27.09L22.5 25.1L9.49 25.1L9.49 27.09C9.49 27.64 9.93 28.09 10.48 28.09L21.51 28.09Z" fill="#67D7C1" fill-opacity="1.000000" fill-rule="nonzero"/>
	<path id="Vector" d="M32 19.12L27.08 19.12C26.54 19.12 26.09 19.57 26.09 20.12C26.09 19.57 25.64 19.12 25.09 19.12L8.76 19.12C8.21 19.12 7.76 19.57 7.76 20.12C7.76 19.57 7.31 19.12 6.77 19.12L-0.01 19.12C-0.56 19.12 -1 19.57 -1 20.12L-1 22.11C-1 22.66 -0.56 23.11 -0.01 23.11L32 23.11C32.55 23.11 32.99 22.66 32.99 22.11L32.99 20.12C32.99 19.57 32.55 19.12 32 19.12Z" fill="#67D7C1" fill-opacity="1.000000" fill-rule="nonzero"/>
	<path id="Vector" d="M24.13 32L19.65 32L19.65 30.08L12.34 30.08L12.34 32L7.4 32C6.85 32 6.4 32.45 6.4 33C6.4 33.55 6.85 34 7.4 34L24.13 34C24.68 34 25.12 33.55 25.12 33C25.12 32.45 24.68 32 24.13 32Z" fill="#67D7C1" fill-opacity="1.000000" fill-rule="nonzero"/>
</svg>
