<svg width="42.000000" height="37.000000" viewBox="0 0 42 37" fill="none" xmlns="http://www.w3.org/2000/svg" xmlns:xlink="http://www.w3.org/1999/xlink">
	<desc>
			Created with Pixso.
	</desc>
	<defs/>
	<path id="Vector" d="M25.88 2.71C26.22 2.71 26.49 2.44 26.49 2.1L26.49 0.24C26.49 -0.1 26.22 -0.37 25.88 -0.37C25.54 -0.37 25.26 -0.1 25.26 0.24L25.26 2.1C25.26 2.44 25.54 2.71 25.88 2.71ZM22.85 2.83C23.02 3.13 23.4 3.23 23.69 3.06C23.98 2.9 24.09 2.52 23.92 2.22L23.14 0.84C22.97 0.54 22.6 0.44 22.3 0.61C22.01 0.77 21.9 1.15 22.07 1.45L22.85 2.83ZM28.07 3.06C28.36 3.23 28.73 3.13 28.9 2.83L29.68 1.45C29.85 1.15 29.75 0.77 29.45 0.61C29.15 0.44 28.78 0.54 28.61 0.84L27.83 2.22C27.66 2.52 27.77 2.9 28.07 3.06ZM39.89 19.96L34.9 18.3C34.62 18.21 34.39 17.99 34.28 17.72L31.5 10.95C31.03 9.8 29.91 9.05 28.66 9.05L28.62 9.05L28.62 7.94C28.62 6.42 27.39 5.19 25.88 5.19C24.36 5.19 23.13 6.42 23.13 7.94L23.13 9.05L18.95 9.05C18.95 9.05 18.95 9.05 18.94 9.05C18.94 9.05 18.94 9.05 18.94 9.05L3.07 9.05C1.37 9.05 0 10.43 0 12.12L0 16.18C0 16.52 0.27 16.8 0.61 16.8C0.95 16.8 1.23 16.52 1.23 16.18L1.23 12.12C1.23 11.11 2.05 10.28 3.07 10.28L18.33 10.28L18.33 23.57L1.23 23.57L1.23 19.06C1.23 18.72 0.95 18.44 0.61 18.44C0.27 18.44 0 18.72 0 19.06L0 28.74C0 30.43 1.37 31.81 3.07 31.81L4.65 31.81C4.95 34.37 7.14 36.36 9.78 36.36C12.42 36.36 14.6 34.37 14.91 31.81L26.12 31.81C26.42 34.37 28.61 36.36 31.25 36.36C33.89 36.36 36.07 34.37 36.38 31.81L38.92 31.81C40.62 31.81 42 30.43 42 28.74L42 22.88C42 21.55 41.15 20.38 39.89 19.96ZM9.78 35.13C7.61 35.13 5.84 33.37 5.84 31.2C5.84 29.03 7.61 27.26 9.78 27.26C11.95 27.26 13.71 29.03 13.71 31.2C13.71 33.37 11.95 35.13 9.78 35.13ZM18.33 30.58L14.91 30.58C14.6 28.02 12.42 26.03 9.78 26.03C7.14 26.03 4.95 28.02 4.65 30.58L3.07 30.58C2.05 30.58 1.23 29.75 1.23 28.74L1.23 24.8L18.33 24.8L18.33 30.58ZM24.36 7.94C24.36 7.1 25.04 6.42 25.88 6.42C26.71 6.42 27.39 7.1 27.39 7.94L27.39 9.05L24.36 9.05L24.36 7.94ZM31.25 35.13C29.08 35.13 27.31 33.37 27.31 31.2C27.31 29.03 29.08 27.26 31.25 27.26C33.42 27.26 35.19 29.03 35.19 31.2C35.19 33.37 33.42 35.13 31.25 35.13ZM40.76 23.57L31.38 23.57C31.04 23.57 30.77 23.84 30.77 24.18C30.77 24.52 31.04 24.8 31.38 24.8L40.76 24.8L40.76 28.74C40.76 29.75 39.94 30.58 38.92 30.58L36.38 30.58C36.07 28.02 33.89 26.03 31.25 26.03C28.61 26.03 26.42 28.02 26.12 30.58L19.56 30.58L19.56 24.8L28.51 24.8C28.85 24.8 29.12 24.52 29.12 24.18C29.12 23.84 28.85 23.57 28.51 23.57L19.56 23.57L19.56 10.28L28.66 10.28C29.41 10.28 30.08 10.73 30.36 11.42L33.14 18.18C33.39 18.79 33.89 19.26 34.52 19.47L39.5 21.13C40.26 21.38 40.76 22.08 40.76 22.88L40.76 23.57ZM29.22 12.15C29.06 11.76 28.69 11.51 28.26 11.51L21.82 11.51C21.25 11.51 20.79 11.97 20.79 12.53L20.79 18.24C20.79 18.8 21.25 19.26 21.82 19.26L30.56 19.26C31.27 19.27 31.78 18.51 31.51 17.85L29.22 12.15ZM22.02 18.03L22.02 12.74L28.13 12.74L30.26 18.03L22.02 18.03ZM31.25 29.35C30.23 29.35 29.4 30.18 29.4 31.2C29.4 32.21 30.23 33.04 31.25 33.04C32.27 33.04 33.09 32.21 33.09 31.2C33.09 30.18 32.27 29.35 31.25 29.35ZM31.25 31.81C30.91 31.81 30.63 31.54 30.63 31.2C30.63 30.86 30.91 30.58 31.25 30.58C31.59 30.58 31.86 30.86 31.86 31.2C31.86 31.54 31.59 31.81 31.25 31.81ZM10.52 11.51L9.04 11.51C8.43 11.51 7.93 12.01 7.93 12.62L7.93 15.08L5.47 15.08C4.86 15.08 4.36 15.57 4.36 16.18L4.36 17.66C4.36 18.27 4.86 18.77 5.47 18.77L7.93 18.77L7.93 21.23C7.93 21.84 8.43 22.34 9.04 22.34L10.52 22.34C11.13 22.34 11.62 21.84 11.62 21.23L11.62 18.77L14.08 18.77C14.69 18.77 15.19 18.27 15.19 17.66L15.19 16.18C15.19 15.57 14.69 15.08 14.08 15.08L11.62 15.08L11.62 12.62C11.62 12.01 11.13 11.51 10.52 11.51ZM13.96 16.31L13.96 17.54L11.25 17.54C10.78 17.54 10.39 17.92 10.39 18.4L10.39 21.11L9.16 21.11L9.16 18.4C9.16 17.92 8.78 17.54 8.3 17.54L5.59 17.54L5.59 16.31L8.3 16.31C8.78 16.31 9.16 15.92 9.16 15.45L9.16 12.74L10.39 12.74L10.39 15.45C10.39 15.92 10.78 16.31 11.25 16.31L13.96 16.31ZM9.78 29.35C8.76 29.35 7.93 30.18 7.93 31.2C7.93 32.21 8.76 33.04 9.78 33.04C10.79 33.04 11.62 32.21 11.62 31.2C11.62 30.18 10.79 29.35 9.78 29.35ZM9.78 31.81C9.44 31.81 9.16 31.54 9.16 31.2C9.16 30.86 9.44 30.58 9.78 30.58C10.12 30.58 10.39 30.86 10.39 31.2C10.39 31.54 10.12 31.81 9.78 31.81Z" fill="#67D7C1" fill-opacity="1.000000" fill-rule="nonzero"/>
</svg>
